<?xml version="1.0" encoding="utf-8"?>
<!-- Generator: Adobe Illustrator 25.4.1, SVG Export Plug-In . SVG Version: 6.00 Build 0)  -->
<svg version="1.1" id="Capa_1" xmlns="http://www.w3.org/2000/svg" xmlns:xlink="http://www.w3.org/1999/xlink" x="0px" y="0px"
	 viewBox="0 0 357 82.8" style="enable-background:new 0 0 357 82.8;" xml:space="preserve">
<style type="text/css">
	.st0{fill:#00B0D8;}
	.st1{fill:#1D2554;}
</style>
<g id="Sub_Marca">
	<path class="st0" d="M198.1,28.2h-7.7v-5.4h7.7v-6.6c0-7.7,1.5-13.5,12.2-13.5c1.3,0,2.6,0,4.1,0.3v5.4c-1-0.3-2-0.3-3.1-0.3
		c-4.6,0-6.9,1.8-6.9,8.2v6.6h9.9v5.4h-9.9v50.5h-6.4V28.2z"/>
	<path class="st0" d="M222.1,39.7c0-11.5,5.4-17.9,17.3-17.9s15.8,5.9,15.8,14.8v32.9c0,3.1,1,4.6,3.3,4.6h1.8v4.6
		c-1,0.5-2,0.5-2.8,0.5c-4.8,0-8.2-1.3-8.2-6.9v-1.8h-0.3C246.6,78,241,80,234.8,80c-9.7,0-14.3-6.1-14.3-15.8
		c0-7.4,3.3-13.3,11.2-15.3l11.7-3.3c4.3-1.3,5.4-2.3,5.4-8.9c0-7.1-4.1-9.7-9.7-9.7c-7.4,0-10.7,4.6-10.7,12.5L222.1,39.7z
		 M248.6,47.3L248.6,47.3c-0.8,1.8-4.3,3.1-6.9,3.6l-5.4,1.3c-6.4,1.8-9.4,4.8-9.4,11.5s3.3,11,8.7,11c7.7,0,13-5.9,13-15.8V47.3z"
		/>
	<path class="st0" d="M299.4,69.5L299.4,69.5c-1.8,6.4-7.4,10.7-13.8,10.5c-12.2,0-17.9-9.9-17.9-29.1s5.6-29.1,17.9-29.1
		c6.1-0.5,11.7,3.6,13,9.7h0.3V3.7h6.4v75h-5.6v-9.2H299.4z M286.6,74.6c6.4,0,12.2-3.3,12.2-24s-5.9-23.7-12.2-23.7
		s-12.2,3.3-12.2,23.7S280.2,74.6,286.6,74.6L286.6,74.6z"/>
	<path class="st0" d="M318.5,23.1h6.4v39.3c0,8.9,3.1,12.5,9.7,12.5c7.1,0,12.2-5.6,12.2-14.3V23.1h6.4v55.6h-5.6v-7.7h-0.3
		c-2.6,5.6-8.2,9.2-14.3,8.9c-8.4,0-14.3-4.3-14.3-14.8V23.1H318.5z"/>
	<path class="st1" d="M72.1,57.3c0,14.8-8.7,22.2-23.5,22.2s-23.5-7.1-23.5-22.2V23.1h12.2v34.2c0,6.1,1.5,12,11.2,12
		c8.7,0,11.5-3.8,11.5-12V23.1h12.2v34.2H72.1z"/>
	<path class="st1" d="M82.5,23.1h26c10.5,0,17.6,3.3,17.6,13.8c0.3,5.1-2.8,9.7-7.4,11.5c6.4,1.5,10.7,7.4,10.2,14
		c0,11.2-9.4,16.1-19.4,16.1H82.8V23.1H82.5z M94.5,45.3h12.2c4.3,0,7.4-2,7.4-6.6c0-5.1-4.1-6.4-8.4-6.4H94.5V45.3z M94.5,68.8h13
		c4.8,0,8.9-1.5,8.9-7.1s-3.6-7.9-8.7-7.9H94.5L94.5,68.8L94.5,68.8z"/>
	<path class="st1" d="M151.9,23.1h12.5l20.7,55.1h-12.5L168.5,66h-20.7l-4.3,12.2h-12.2L151.9,23.1z M150.6,56.8h14.3L158,36.6h-0.3
		L150.6,56.8z"/>
	<path class="st1" d="M18.3,71.6c0,4.1-3.3,7.7-7.4,7.7c-4.1,0-7.7-3.3-7.7-7.4c0-4.1,3.3-7.7,7.4-7.7l0,0
		C14.9,63.9,18.3,67.2,18.3,71.6z"/>
</g>
</svg>
